<svg id="Calque_1" data-name="Calque 1" xmlns="http://www.w3.org/2000/svg" viewBox="0 0 921.6 921.6">
  <title>circle-pattern</title>
  <rect fill="" x="51.2" y="870.4" width="102.4" height="102.4" rx="51.2" transform="translate(-672.88 291.14) rotate(-45)"/>
  <rect fill="" x="255.8" y="870.4" width="102.4" height="102.4" rx="51.2" transform="translate(-612.95 435.81) rotate(-45)"/>
  <rect fill="" x="460.6" y="870.4" width="102.4" height="102.4" rx="51.2" transform="translate(-552.97 580.63) rotate(-45)"/>
  <rect fill="" x="665.6" y="870.4" width="102.4" height="102.4" rx="51.2" transform="translate(-492.92 725.58) rotate(-45)"/>
  <rect fill="" x="870.4" y="870.4" width="102.4" height="102.4" rx="51.2" transform="translate(-432.94 870.4) rotate(-45)"/>
  <rect fill="" x="51.2" y="51.2" width="102.4" height="102.4" rx="51.2" transform="translate(-93.62 51.2) rotate(-45)"/>
  <rect fill="" x="255.8" y="51.2" width="102.4" height="102.4" rx="51.2" transform="translate(-33.69 195.87) rotate(-45)"/>
  <rect fill="" x="460.6" y="51.2" width="102.4" height="102.4" rx="51.2" transform="translate(26.3 340.69) rotate(-45)"/>
  <rect fill="" x="665.6" y="51.2" width="102.4" height="102.4" rx="51.2" transform="translate(86.34 485.65) rotate(-45)"/>
  <rect fill="" x="870.4" y="51.2" width="102.4" height="102.4" rx="51.2" transform="translate(146.32 630.46) rotate(-45)"/>
  <rect fill="" x="51.3" y="256" width="102.4" height="102.4" rx="51.2" transform="translate(-238.4 111.26) rotate(-45)"/>
  <rect fill="" x="255.7" y="256" width="102.4" height="102.4" rx="51.2" transform="translate(-178.53 255.79) rotate(-45)"/>
  <rect fill="" x="460.5" y="256" width="102.4" height="102.4" rx="51.2" transform="translate(-118.55 400.6) rotate(-45)"/>
  <rect fill="" x="665.5" y="256" width="102.4" height="102.4" rx="51.2" transform="translate(-58.51 545.56) rotate(-45)"/>
  <rect fill="" x="870.3" y="256" width="102.4" height="102.4" rx="51.2" transform="translate(1.48 690.38) rotate(-45)"/>
  <rect fill="" x="51.3" y="460.8" width="102.4" height="102.4" rx="51.2" transform="translate(-383.22 171.24) rotate(-45)"/>
  <rect fill="" x="255.7" y="460.8" width="102.4" height="102.4" rx="51.2" transform="translate(-323.35 315.77) rotate(-45)"/>
  <rect fill="" x="460.5" y="460.8" width="102.4" height="102.4" rx="51.2" transform="translate(-263.37 460.59) rotate(-45)"/>
  <rect fill="" x="665.5" y="460.8" width="102.4" height="102.4" rx="51.2" transform="translate(-203.32 605.54) rotate(-45)"/>
  <rect fill="" x="870.3" y="460.8" width="102.4" height="102.4" rx="51.2" transform="translate(-143.34 750.36) rotate(-45)"/>
  <rect fill="" x="51.3" y="665.6" width="102.4" height="102.4" rx="51.2" transform="translate(-528.03 231.22) rotate(-45)"/>
  <rect fill="" x="255.7" y="665.9" width="102.4" height="102.4" rx="51.2" transform="translate(-468.38 375.84) rotate(-45)"/>
  <rect fill="" x="460.5" y="665.6" width="102.4" height="102.4" rx="51.2" transform="translate(-408.18 520.57) rotate(-45)"/>
  <rect fill="" x="665.5" y="665.6" width="102.4" height="102.4" rx="51.2" transform="translate(-348.14 665.53) rotate(-45)"/>
  <rect fill="" x="870.3" y="665.6" width="102.4" height="102.4" rx="51.2" transform="translate(-288.15 810.34) rotate(-45)"/>
</svg>