<?xml version="1.0" encoding="utf-8"?>
<!-- Generator: Adobe Illustrator 23.0.2, SVG Export Plug-In . SVG Version: 6.00 Build 0)  -->
<svg version="1.1" id="Calque_1" xmlns="http://www.w3.org/2000/svg" xmlns:xlink="http://www.w3.org/1999/xlink" x="0px" y="0px"
	 viewBox="0 0 1024 1024" style="enable-background:new 0 0 1024 1024;" xml:space="preserve">
<rect fill="" x="51.2" y="870.4" transform="matrix(0.7071 -0.7071 0.7071 0.7071 -621.6774 342.3381)" width="102.4" height="102.4"/>
<rect fill="" x="255.8" y="870.4" transform="matrix(0.7071 -0.7071 0.7071 0.7071 -561.7514 487.0122)" width="102.4" height="102.4"/>
<rect fill="" x="460.6" y="870.4" transform="matrix(0.7071 -0.7071 0.7071 0.7071 -501.7668 631.8276)" width="102.4" height="102.4"/>
<rect fill="" x="665.6" y="870.4" transform="matrix(0.7071 -0.7071 0.7071 0.7071 -441.7238 776.7845)" width="102.4" height="102.4"/>
<rect fill="" x="870.4" y="870.4" transform="matrix(0.7071 -0.7071 0.7071 0.7071 -381.7392 921.6)" width="102.4" height="102.4"/>
<rect fill="" x="51.2" y="51.2" transform="matrix(0.7071 -0.7071 0.7071 0.7071 -42.4155 102.4)" width="102.4" height="102.4"/>
<rect fill="" x="255.8" y="51.2" transform="matrix(0.7071 -0.7071 0.7071 0.7071 17.5105 247.0741)" width="102.4" height="102.4"/>
<rect fill="" x="460.6" y="51.2" transform="matrix(0.7071 -0.7071 0.7071 0.7071 77.495 391.8895)" width="102.4" height="102.4"/>
<rect fill="" x="665.6" y="51.2" transform="matrix(0.7071 -0.7071 0.7071 0.7071 137.5381 536.8464)" width="102.4" height="102.4"/>
<rect fill="" x="870.4" y="51.2" transform="matrix(0.7071 -0.7071 0.7071 0.7071 197.5227 681.6619)" width="102.4" height="102.4"/>
<rect fill="" x="51.3" y="256" transform="matrix(0.7071 -0.7071 0.7071 0.7071 -187.2016 162.4552)" width="102.4" height="102.4"/>
<rect fill="" x="255.7" y="256" transform="matrix(0.7071 -0.7071 0.7071 0.7071 -127.3343 306.9879)" width="102.4" height="102.4"/>
<rect fill="" x="460.5" y="256" transform="matrix(0.7071 -0.7071 0.7071 0.7071 -67.3497 451.8033)" width="102.4" height="102.4"/>
<rect fill="" x="665.5" y="256" transform="matrix(0.7071 -0.7071 0.7071 0.7071 -7.3066 596.7603)" width="102.4" height="102.4"/>
<rect fill="" x="870.3" y="256" transform="matrix(0.7071 -0.7071 0.7071 0.7071 52.6779 741.5757)" width="102.4" height="102.4"/>
<rect fill="" x="51.3" y="460.8" transform="matrix(0.7071 -0.7071 0.7071 0.7071 -332.0171 222.4398)" width="102.4" height="102.4"/>
<rect fill="" x="255.7" y="460.8" transform="matrix(0.7071 -0.7071 0.7071 0.7071 -272.1497 366.9724)" width="102.4" height="102.4"/>
<rect fill="" x="460.5" y="460.8" transform="matrix(0.7071 -0.7071 0.7071 0.7071 -212.1652 511.7879)" width="102.4" height="102.4"/>
<rect fill="" x="665.5" y="460.8" transform="matrix(0.7071 -0.7071 0.7071 0.7071 -152.1221 656.7448)" width="102.4" height="102.4"/>
<rect fill="" x="870.3" y="460.8" transform="matrix(0.7071 -0.7071 0.7071 0.7071 -92.1376 801.5602)" width="102.4" height="102.4"/>
<rect fill="" x="51.3" y="665.6" transform="matrix(0.7071 -0.7071 0.7071 0.7071 -476.8326 282.4243)" width="102.4" height="102.4"/>
<rect fill="" x="255.7" y="665.9" transform="matrix(0.7071 -0.7071 0.7071 0.7071 -417.1773 427.0448)" width="102.4" height="102.4"/>
<rect fill="" x="460.5" y="665.6" transform="matrix(0.7071 -0.7071 0.7071 0.7071 -356.9807 571.7724)" width="102.4" height="102.4"/>
<rect fill="" x="665.5" y="665.6" transform="matrix(0.7071 -0.7071 0.7071 0.7071 -296.9376 716.7293)" width="102.4" height="102.4"/>
<rect fill="" x="870.3" y="665.6" transform="matrix(0.7071 -0.7071 0.7071 0.7071 -236.953 861.5447)" width="102.4" height="102.4"/>
</svg>
