<svg id="Calque_1" data-name="Calque 1" xmlns="http://www.w3.org/2000/svg" viewBox="0 0 1024 1024">
  <title>line-dialog-pattern</title>
  <path fill="" d="M2,1025c5.74-6,11.36-12.08,17.22-18Q185.48,840.76,351.79,674.5q78.29-78.29,156.55-156.58c26.32-26.3,52.8-52.44,79.1-78.76Q671,355.6,754.36,271.92,884.92,141.3,1015.56,10.77c3-3,6.29-5.85,9.44-8.77V172a25.7,25.7,0,0,0-2.29,1.85q-59.4,59.34-118.77,118.72Q785.74,410.79,667.53,529L455.84,740.67Q333.56,863,211.3,985.24c-13.17,13.18-26.2,26.5-39.3,39.76Z" transform="translate(-1 -1)"/>
  <path fill="" d="M854,1q-36.51,36.63-73,73.24Q609.27,246,437.52,417.73L5.71,849.56c-1.52,1.53-3.14,3-4.71,4.44V683a32.07,32.07,0,0,0,3.85-2.83q85.73-85.68,171.39-171.39,252-252,503.92-504A31.8,31.8,0,0,0,683,1Z" transform="translate(-1 -1)"/>
  <path fill="" d="M513,1025H343q31.72-31.87,63.44-63.76c6.88-6.93,13.58-14,21.36-22.1l10.12-9.69,3.47-3.44,4.69-4.65,6.22-6.17,4.41-4.37,6.21-6.17-4.69,4.66-20.31,20.14c15.77-15.66,31.4-31.1,46.94-46.63Q623.6,744.13,762.28,605.41q118-118,236.09-236c8.84-8.83,17.75-17.58,26.63-26.37V513q-14.52,14.44-29,28.9" transform="translate(-1 -1)"/>
  <path fill="" d="M512,1a31.08,31.08,0,0,1-2.64,3.47Q345.23,168.65,181.07,332.79,129.83,384,78.61,435.28,45.45,468.4,12.15,501.37C8.5,505,4.72,508.46,1,512V342a31.64,31.64,0,0,0,3.07-2.41Q70.51,273.23,136.9,206.83,227.86,115.9,318.79,25C326.65,17.09,334.27,9,342,1Z" transform="translate(-1 -1)"/>
  <path fill="" d="M684,1025l341-341V855a36.85,36.85,0,0,0-3.45,2.72q-73.65,73.59-147.26,147.22c-6.55,6.56-12.87,13.37-19.29,20.06Z" transform="translate(-1 -1)"/>
  <path fill="" d="M171,1a43.89,43.89,0,0,1-2.8,3.42Q86.35,86.34,4.42,168.22A40.23,40.23,0,0,1,1,171V1Z" transform="translate(-1 -1)"/>
</svg>