<?xml version="1.0" encoding="utf-8"?>
<!-- Generator: Adobe Illustrator 23.0.2, SVG Export Plug-In . SVG Version: 6.00 Build 0)  -->
<svg version="1.1" id="Calque_1" xmlns="http://www.w3.org/2000/svg" xmlns:xlink="http://www.w3.org/1999/xlink" x="0px" y="0px"
	 viewBox="0 0 1024 1024" style="enable-background:new 0 0 1024 1024;" xml:space="preserve">
<rect fill="" x="127.8" y="379.8" transform="matrix(6.123234e-17 -1 1 6.123234e-17 -349.9302 676.4418)" width="70.9" height="266.7"/>
<rect fill="" x="127.8" y="46.7" transform="matrix(0.7071 -0.7071 0.7071 0.7071 -79.4956 168.1737)" width="70.9" height="266.7"/>
<rect fill="" x="127.8" y="713" transform="matrix(-0.7071 -0.7071 0.7071 -0.7071 -319.7473 1560.2075)" width="70.9" height="266.7"/>
<rect fill="" x="476.5" y="379.8" width="70.9" height="266.7"/>
<rect fill="" x="476.5" y="46.7" transform="matrix(-0.7071 -0.7071 0.7071 -0.7071 746.6675 669.3724)" width="70.9" height="266.7"/>
<rect fill="" x="476.5" y="713" transform="matrix(0.7071 -0.7071 0.7071 0.7071 -448.4915 609.8973)" width="70.9" height="266.7"/>
<rect fill="" x="825.2" y="379.8" transform="matrix(-0.7071 -0.7071 0.7071 -0.7071 1106.3861 1484.652)" width="70.9" height="266.7"/>
<rect fill="" x="825.2" y="46.7" transform="matrix(6.123234e-17 -1 1 6.123234e-17 680.6279 1040.7209)" width="70.9" height="266.7"/>
<rect fill="" x="825.2" y="713" width="70.9" height="266.7"/>
</svg>
