<?xml version="1.0" encoding="utf-8"?>
<!-- Generator: Adobe Illustrator 23.0.2, SVG Export Plug-In . SVG Version: 6.00 Build 0)  -->
<svg version="1.1" id="Calque_1" xmlns="http://www.w3.org/2000/svg" xmlns:xlink="http://www.w3.org/1999/xlink" x="0px" y="0px"
	 viewBox="0 0 1024 1024" style="enable-background:new 0 0 1024 1024;" xml:space="preserve">
<rect fill="" x="51.2" y="870.4" width="102.4" height="102.4"/>
<rect fill="" x="255.8" y="870.4" width="102.4" height="102.4"/>
<rect fill="" x="460.6" y="870.4" width="102.4" height="102.4"/>
<rect fill="" x="665.6" y="870.4" width="102.4" height="102.4"/>
<rect fill="" x="870.4" y="870.4" width="102.4" height="102.4"/>
<rect fill="" x="51.2" y="51.2" width="102.4" height="102.4"/>
<rect fill="" x="255.8" y="51.2" width="102.4" height="102.4"/>
<rect fill="" x="460.6" y="51.2" width="102.4" height="102.4"/>
<rect fill="" x="665.6" y="51.2" width="102.4" height="102.4"/>
<rect fill="" x="870.4" y="51.2" width="102.4" height="102.4"/>
<rect fill="" x="51.3" y="256" width="102.4" height="102.4"/>
<rect fill="" x="255.7" y="256" width="102.4" height="102.4"/>
<rect fill="" x="460.5" y="256" width="102.4" height="102.4"/>
<rect fill="" x="665.5" y="256" width="102.4" height="102.4"/>
<rect fill="" x="870.3" y="256" width="102.4" height="102.4"/>
<rect fill="" x="51.3" y="460.8" width="102.4" height="102.4"/>
<rect fill="" x="255.7" y="460.8" width="102.4" height="102.4"/>
<rect fill="" x="460.5" y="460.8" width="102.4" height="102.4"/>
<rect fill="" x="665.5" y="460.8" width="102.4" height="102.4"/>
<rect fill="" x="870.3" y="460.8" width="102.4" height="102.4"/>
<rect fill="" x="51.3" y="665.6" width="102.4" height="102.4"/>
<rect fill="" x="255.7" y="665.6" width="102.4" height="102.4"/>
<rect fill="" x="460.5" y="665.6" width="102.4" height="102.4"/>
<rect fill="" x="665.5" y="665.6" width="102.4" height="102.4"/>
<rect fill="" x="870.3" y="665.6" width="102.4" height="102.4"/>
</svg>
